<svg width="26" height="26" viewBox="0 0 26 26" fill="none" xmlns="http://www.w3.org/2000/svg">
<path d="M13 1C6.37257 1 1 6.37257 1 13C1 19.6274 6.37257 25 13 25C19.6274 25 25 19.6274 25 13C25 6.37257 19.6274 1 13 1ZM18.2226 18.4153C18.07 18.6764 17.7954 18.8219 17.5133 18.822C17.3727 18.822 17.2302 18.7858 17.1 18.7097C14.9436 17.4495 12.4524 17.247 10.7419 17.299C8.84709 17.3566 7.45755 17.7307 7.44374 17.7345C7.00696 17.8538 6.55558 17.5968 6.43577 17.16C6.316 16.7234 6.57214 16.2723 7.0087 16.152C7.07133 16.1348 8.5666 15.7286 10.6459 15.6601C11.8707 15.6196 13.0498 15.705 14.15 15.9137C15.5434 16.178 16.8146 16.642 17.9281 17.2928C18.3194 17.5215 18.4512 18.0241 18.2226 18.4153ZM19.7481 15.2468C19.5674 15.5561 19.2422 15.7285 18.908 15.7285C18.7415 15.7285 18.5727 15.6857 18.4185 15.5956C15.8642 14.1028 12.9132 13.863 10.8871 13.9245C8.64264 13.9928 6.99669 14.4359 6.98036 14.4404C6.4631 14.5815 5.92832 14.2773 5.7864 13.76C5.64452 13.2427 5.94797 12.7084 6.46506 12.5659C6.53925 12.5455 8.31041 12.0644 10.7734 11.9832C12.2243 11.9353 13.6209 12.0364 14.9241 12.2836C16.5747 12.5968 18.0804 13.1464 19.3994 13.9172C19.8629 14.188 20.019 14.7833 19.7481 15.2468ZM20.686 12.3658C20.4816 12.3658 20.2747 12.3133 20.0855 12.2028C14.0129 8.65381 6.13552 10.7637 6.05667 10.7854C5.42178 10.9604 4.76545 10.5875 4.59058 9.95266C4.41566 9.31783 4.78852 8.66144 5.42335 8.48657C5.51432 8.46149 7.68686 7.87138 10.708 7.77177C12.4877 7.71318 14.2008 7.83709 15.7992 8.14031C17.8239 8.5244 19.6708 9.19852 21.2886 10.144C21.8571 10.4763 22.0487 11.2064 21.7165 11.7749C21.4948 12.1543 21.0958 12.3658 20.686 12.3658Z" fill="#00D95F"/>
</svg>
