<svg width="26" height="26" viewBox="0 0 26 26" fill="none" xmlns="http://www.w3.org/2000/svg">
  <path d="M13 3L4.2075 5.50879V9.91676C4.2075 15.5791 7.57211 20.6788 12.7655 22.9062L13 23L13.2345 22.9062C18.4279 20.6788 21.7925 15.5791 21.7925 9.91676V5.50879L13 3Z" fill="#4A4A4A"/>
  <path d="M21.7925 5.50879V9.91676C21.7925 15.5791 18.4279 20.6788 13.2345 22.9062L13 23V3L21.7925 5.50879Z" fill="#4A4A4A"/>
  <path d="M13 5.43848L6.55219 7.27906V9.9168C6.55219 14.2544 8.92035 18.2169 12.7187 20.2802L13 20.4326L13.2814 20.2802C17.0798 18.2169 19.4479 14.2544 19.4479 9.9168V7.27906L13 5.43848Z" fill="#00ABE9"/>
  <path d="M19.4478 7.27906V9.9168C19.4478 14.2544 17.0796 18.2169 13.2813 20.2802L13 20.4326V5.43848L19.4478 7.27906Z" fill="#0095FF"/>
</svg>
