<svg width="26" height="26" viewBox="0 0 26 26" fill="none" xmlns="http://www.w3.org/2000/svg">
  <path d="M13.1307 21.4183C13.1307 21.4183 7.77124 18.2288 4.97385 14.1765C3.35294 11.8235 3.11765 9.78431 3.58823 8.18954C4.26797 5.88889 6.85621 3.61438 10.464 4.94772C12.2157 5.60131 13.1307 6.33334 13.1307 6.33334C13.1307 6.33334 14.0457 5.60131 15.7974 4.94772C19.4052 3.61438 21.9934 5.88889 22.6732 8.18954C23.1438 9.75817 22.9085 11.7974 21.2876 14.1765C18.4902 18.2288 13.1307 21.4183 13.1307 21.4183Z" fill="#F55557"/>
  <path d="M24.634 12.634H22.5948C23.4575 10.6993 23.3529 9.15686 23.0392 8.11111C22.4902 6.22876 20.6601 4.21568 17.915 4.21568C17.183 4.21568 16.451 4.3464 15.6928 4.63398C14.3856 5.13072 13.5229 5.65359 13.1569 5.91503C12.7647 5.65359 11.9281 5.13072 10.6209 4.63398C9.86274 4.3464 9.13072 4.21568 8.39869 4.21568C5.65359 4.21568 3.82353 6.22876 3.27451 8.11111C2.9085 9.20915 2.80392 10.9085 3.84967 13.0261H1.36601C1.15686 13.0261 1 13.183 1 13.3922C1 13.6013 1.15686 13.7582 1.36601 13.7582H4.26797C4.39869 13.9673 4.52941 14.1765 4.66013 14.3856C7.03922 17.8105 12.1895 21.5229 13.1307 21.7582V21.7843C13.1307 21.7843 13.1569 21.7843 13.183 21.7582C13.2091 21.7582 13.2353 21.7582 13.2353 21.7582V21.732C14.0458 21.3399 18.9869 18.1503 21.6013 14.3595C21.8366 14.0196 22.0457 13.6536 22.2288 13.3399H24.634C24.8431 13.3399 25 13.183 25 12.9739C25 12.7909 24.8431 12.634 24.634 12.634ZM3.95425 8.32026C4.42484 6.69935 6.01961 4.94771 8.37255 4.94771C9 4.94771 9.65359 5.07843 10.3333 5.31372C12.0065 5.94117 12.8954 6.64706 12.8954 6.64706C13.0261 6.75163 13.2353 6.75163 13.366 6.64706C13.366 6.64706 14.2549 5.94117 15.9281 5.31372C16.6078 5.07843 17.2614 4.94771 17.8889 4.94771C20.2418 4.94771 21.8366 6.69935 22.3072 8.32026C22.6993 9.6536 22.4902 11.1176 21.7582 12.634H19.5359L18.5948 11.0392C18.5425 10.9346 18.4118 10.8562 18.281 10.8562C18.1503 10.8562 18.0196 10.9085 17.9673 11.0131L17.183 12.1634L15.9281 8.08497C15.8758 7.9281 15.719 7.82353 15.5621 7.82353C15.4052 7.82353 15.2484 7.9281 15.1961 8.08497L13.0784 15.4314L10.7778 9.54902C10.7255 9.4183 10.5948 9.31373 10.4379 9.31373C10.281 9.31373 10.1503 9.39216 10.098 9.52288L8.29412 13.0261H4.71242C3.79739 11.3529 3.5098 9.75817 3.95425 8.32026ZM20.9739 13.9673C18.5425 17.4967 14.098 20.3726 13.1307 20.9739C12.1634 20.3726 7.71895 17.4706 5.28758 13.9673C5.23529 13.8889 5.20915 13.8366 5.15686 13.7582H8.52941C8.66013 13.7582 8.79085 13.6797 8.86928 13.549L10.3856 10.5686L12.7908 16.7124C12.8431 16.8693 12.9739 16.9477 13.1307 16.9477C13.1307 16.9477 13.1307 16.9477 13.1569 16.9477C13.3137 16.9477 13.4444 16.8431 13.4967 16.6863L15.5882 9.49673L16.7124 13.1307C16.7647 13.2614 16.8693 13.366 17.0261 13.3922C17.1569 13.4183 17.3137 13.3399 17.3922 13.2353L18.281 11.9543L19.0392 13.2353C19.1176 13.3399 19.2222 13.4183 19.3529 13.4183H21.366C21.2353 13.5752 21.1046 13.7843 20.9739 13.9673Z" fill="#4A4A4A"/>
</svg>
