<svg width="512" height="512" viewBox="0 0 512 512" fill="none" xmlns="http://www.w3.org/2000/svg">
  <path d="M494.241 415.405C482.777 408.15 461.191 408.448 443.421 410.318L400.605 367.484C404.982 363.853 408.334 358.994 409.753 352.429C409.753 352.429 418.938 331.236 396.025 304.188C396.025 304.188 389.909 277.964 397.407 250.13C404.104 225.493 406.085 187.028 393.89 151.114L443.421 101.602C461.21 103.479 482.814 103.808 494.281 96.5027C497.197 95.0067 499.967 93.0592 502.492 90.5648C511.118 81.9298 513.865 69.6331 510.704 58.6328C509.211 53.5826 506.495 48.7752 502.492 44.7541C495.387 37.6458 485.865 34.5401 476.551 35.4187C477.411 26.1325 474.268 16.5728 467.197 9.48602C463.157 5.46188 458.368 2.74328 453.281 1.27492C442.321 -1.88602 429.993 0.826433 421.371 9.48602C418.879 11.9558 416.953 14.7143 415.405 17.7063C408.146 29.1644 408.444 50.7504 410.318 68.558L370.27 108.551C362.787 99.5715 353.863 91.3789 343.017 84.3658C322.346 71.0646 298.683 59.6926 247.958 58.8509C215.657 58.3348 169.017 64.4785 134.075 101.009L101.651 68.5549C103.509 50.7473 103.82 29.1429 96.4964 17.6848C95.0281 14.7297 93.0743 11.9527 90.5554 9.50138C81.9419 0.851007 69.6084 -1.87066 58.6449 1.29028C53.5579 2.75864 48.7688 5.48031 44.7293 9.50138C37.6579 16.5912 34.5553 26.1294 35.4124 35.3818C26.163 34.5401 16.588 37.6642 9.47969 44.751C5.49548 48.7905 2.71851 53.5826 1.28703 58.6789C-1.87392 69.6485 0.86618 81.9267 9.47969 90.6078C11.9679 93.0561 14.7264 95.0313 17.7369 96.5181C29.1949 103.823 50.7993 103.513 68.5302 101.614L107.567 140.652C104.136 148.021 100.917 155.82 98.2812 164.52C98.2812 164.52 84.1383 212.481 105.764 278.987C105.764 278.987 107.822 298.423 94.6994 312.224C84.1383 323.335 73.8813 358.689 106.612 372.267L68.567 410.315C50.7963 408.426 29.1949 408.107 17.7553 415.442C14.8278 416.901 12.0324 418.861 9.53498 421.352C0.921474 429.99 -1.83706 442.339 1.32389 453.284C2.81067 458.35 5.53234 463.179 9.53498 467.218C16.6248 474.29 26.163 477.392 35.4523 476.532C34.5922 485.812 37.7347 495.369 44.8061 502.474C48.8456 506.458 53.6347 509.192 58.7493 510.648C69.6821 513.828 82.0003 511.06 90.6599 502.474C93.1296 500.004 95.0834 497.2 96.5701 494.223C103.893 482.759 103.546 461.173 101.685 443.424L160.683 384.407C164.723 391.721 169.361 406.349 171.831 435.904C171.831 435.904 173.44 457.001 191.77 453.672C191.77 453.672 201.179 453.112 202.844 413.194C202.844 413.194 213.393 403.207 212.822 427.038C212.822 427.038 210.026 454.774 227.779 453.112C227.779 453.112 237.741 459.207 241.63 428.719C241.63 428.719 241.63 402.104 251.076 412.072C251.076 412.072 253.834 450.888 264.936 454.774C264.936 454.774 281.002 459.769 283.791 438.69C283.791 438.69 283.754 404.89 292.638 410.988C292.638 410.988 295.968 413.215 296.493 433.695C296.493 433.695 295.968 455.34 309.81 454.237C309.81 454.237 324.211 454.237 328.103 420.999C328.103 420.999 325.673 383.716 344.377 377.489L410.333 443.464C408.444 461.234 408.162 482.857 415.476 494.306C416.92 497.261 418.919 500.066 421.408 502.517C430.049 511.177 442.376 513.889 453.318 510.728C458.387 509.269 463.216 506.541 467.215 502.517C474.323 495.427 477.429 485.889 476.569 476.572C485.828 477.432 495.387 474.293 502.511 467.221C506.517 463.182 509.229 458.393 510.725 453.34C513.865 442.342 511.137 430.052 502.511 421.392C499.964 418.846 497.233 416.901 494.241 415.405ZM168.866 333.887C162.563 332.634 156.809 330.275 151.686 327.246C135.131 317.502 125.556 300.032 129.083 282.486C133.777 259.551 159.132 245.365 185.796 250.763C196.925 253.045 206.306 258.47 213.341 265.541C223.226 275.491 228.239 288.771 225.564 302.146C220.885 325.135 195.521 339.349 168.866 333.887ZM264.441 364.452C262.485 365.838 260.325 366.661 258.043 366.661C253.926 366.661 250.271 364.154 247.841 360.225C245.399 364.151 241.762 366.661 237.646 366.661C235.345 366.661 233.148 365.838 231.247 364.452C227.152 361.405 224.393 355.605 224.393 348.89C224.393 346.983 224.655 345.17 225.057 343.431C227.339 329.7 247.841 312.418 247.841 312.418C247.841 312.418 268.321 329.7 270.604 343.431C271.037 345.152 271.258 347.001 271.258 348.89C271.295 355.605 268.469 361.402 264.441 364.452ZM352.736 319.634C345.741 326.481 336.483 331.7 325.633 333.89C316.675 335.743 307.939 335.162 300.007 332.99C284.35 328.613 272.041 317.428 268.92 302.186L268.902 301.866C265.553 284.694 274.775 267.523 290.844 257.742C296.1 254.544 302.161 252.13 308.725 250.799C335.38 245.365 360.726 259.554 365.401 282.504C368.169 296.14 362.932 309.647 352.736 319.634Z" fill="white"/>
</svg>
