<svg width="512" height="512" viewBox="0 0 512 512" fill="none" xmlns="http://www.w3.org/2000/svg">
<path d="M405.208 55.1279C407.965 48.8346 412.085 42.9493 417.456 38.6453C424.093 33.3253 432.64 30.4159 441.179 30.4026C449.763 30.3893 458.341 33.3013 464.971 38.6479C466.539 39.9146 468 41.3146 469.347 42.8239C471.365 45.0826 472.685 47.8746 473.155 50.8666C473.621 53.8586 473.213 56.9226 471.979 59.6879C414.293 188.997 356.608 318.309 298.923 447.619C295.627 455.011 290.259 461.285 283.469 465.691C276.68 470.096 268.763 472.44 260.669 472.44C252.576 472.44 244.659 470.096 237.869 465.691C231.08 461.285 225.715 455.008 222.416 447.619C164.733 318.307 107.048 188.997 49.3627 59.6853C48.128 56.9199 47.72 53.8559 48.1867 50.8639C48.6533 47.8719 49.976 45.0799 51.992 42.8213C53.3387 41.3119 54.8 39.9119 56.368 38.6453C62.9973 33.2986 71.576 30.3866 80.16 30.3999C88.6987 30.4133 97.2453 33.3226 103.883 38.6426C109.253 42.9493 113.373 48.8319 116.131 55.1253C139.579 107.691 163.024 160.256 186.475 212.824C198.2 239.107 209.923 265.389 221.648 291.672C228.376 306.752 235.104 321.835 241.829 336.915C245.189 344.445 248.549 351.976 251.907 359.507C252.117 359.976 252.325 360.448 252.536 360.917C252.589 361.035 252.64 361.152 252.693 361.269C252.725 361.339 252.755 361.408 252.787 361.477C252.832 361.576 252.88 361.675 252.928 361.771C253.131 362.171 253.36 362.547 253.621 362.912C254.16 363.664 254.816 364.328 255.563 364.875C256.315 365.427 257.149 365.853 258.037 366.139C258.469 366.277 258.909 366.381 259.357 366.453C259.576 366.488 259.795 366.512 260.016 366.531C260.211 366.547 260.469 366.557 260.667 366.557C262.504 366.549 264.288 365.96 265.771 364.875C266.517 364.328 267.173 363.667 267.712 362.915C267.973 362.552 268.203 362.173 268.405 361.776C268.453 361.68 268.501 361.581 268.547 361.483C268.579 361.413 268.608 361.347 268.64 361.277C268.693 361.16 268.744 361.043 268.797 360.925C269.008 360.456 269.216 359.984 269.427 359.515C272.784 351.987 276.144 344.459 279.501 336.928C286.227 321.851 292.952 306.773 299.677 291.696C311.405 265.405 323.133 239.115 334.861 212.824C358.315 160.259 381.763 107.693 405.208 55.1279Z" fill="#FB4E0E"/>
<path d="M260.645 241.656C264.48 241.656 268.307 241.304 272.077 240.608C276.075 239.867 279.992 238.741 283.771 237.245C291.752 234.085 299 229.325 305.069 223.256C311.139 217.187 315.901 209.939 319.061 201.955C320.557 198.173 321.683 194.259 322.424 190.259C323.123 186.488 323.472 182.661 323.472 178.827C323.472 174.992 323.12 171.165 322.424 167.395C321.685 163.397 320.56 159.48 319.061 155.701C315.901 147.72 311.141 140.472 305.072 134.403C299.003 128.333 291.755 123.571 283.771 120.411C279.989 118.915 276.075 117.789 272.075 117.048C268.304 116.349 264.477 116 260.643 116C256.808 116 252.981 116.352 249.211 117.048C245.213 117.787 241.296 118.915 237.517 120.411C229.536 123.571 222.288 128.331 216.219 134.4C210.149 140.469 205.387 147.717 202.227 155.701C200.731 159.483 199.605 163.397 198.864 167.397C198.165 171.168 197.816 174.995 197.816 178.829C197.816 182.664 198.168 186.491 198.864 190.261C199.603 194.259 200.728 198.176 202.227 201.955C205.387 209.936 210.147 217.184 216.216 223.253C222.285 229.323 229.533 234.085 237.517 237.245C241.299 238.741 245.213 239.869 249.213 240.608C252.987 241.304 256.811 241.656 260.645 241.656Z" fill="#FB4E0E"/>
</svg>
