<svg width="130" height="130" viewBox="0 0 130 130" fill="none" xmlns="http://www.w3.org/2000/svg">
<g clip-path="url(#clip0_925_249)">
<path d="M64.8109 55.1065C73.8914 55.1065 81.2525 47.7506 81.2525 38.6769C81.2525 29.6031 73.8914 22.2473 64.8109 22.2473C55.7304 22.2473 48.3693 29.6031 48.3693 38.6769C48.3693 47.7506 55.7304 55.1065 64.8109 55.1065Z" fill="url(#paint0_linear_925_249)"/>
<path d="M120.609 12.0383C113.944 8.75492 105.876 11.4952 102.591 18.1593L79.6225 64.7563L56.4249 111.815C55.6189 113.451 55.1759 115.173 55.0651 116.886C58.2247 118.085 61.6501 118.743 65.2274 118.743C75.8429 118.743 85.1133 112.963 90.1007 104.363L91.8237 100.867L126.734 30.0473C130.019 23.3846 127.277 15.3216 120.609 12.0383Z" fill="url(#paint1_linear_925_249)"/>
<path d="M67.5667 99.9992C70.625 104.618 74.7665 106.414 79.8547 106.414C85.213 106.414 89.9125 103.601 92.5567 99.3719L92.199 100.095L90.3487 103.849C86.863 109.858 81.4291 114.584 74.9179 117.152C73.3316 117.778 71.6815 118.276 69.9795 118.633C68.2731 118.949 66.5132 119.115 64.7162 119.115C60.4693 119.115 56.4377 118.194 52.8051 116.542C47.2954 114.034 42.7059 109.84 39.6891 104.617L38.0079 101.206L2.89493 29.9923C-0.405207 23.296 2.35035 15.194 9.05005 11.8948C15.7497 8.59562 23.8577 11.3492 27.1593 18.0454C27.1593 18.0454 64.5856 96.0935 67.5653 99.9992H67.5667Z" fill="url(#paint2_linear_925_249)"/>
</g>
<defs>
<linearGradient id="paint0_linear_925_249" x1="64.7513" y1="18.3072" x2="69.1345" y2="46.8554" gradientUnits="userSpaceOnUse">
<stop stop-color="#FF9900"/>
<stop offset="1" stop-color="#FB4F0E"/>
</linearGradient>
<linearGradient id="paint1_linear_925_249" x1="21.2891" y1="182.231" x2="123.435" y2="14.6929" gradientUnits="userSpaceOnUse">
<stop stop-color="#FB4E0E"/>
<stop offset="0.959783" stop-color="#FFE431"/>
</linearGradient>
<linearGradient id="paint2_linear_925_249" x1="1.5" y1="-4.2181" x2="1.11815" y2="68.4318" gradientUnits="userSpaceOnUse">
<stop stop-color="#FF9900"/>
<stop offset="1" stop-color="#FB4F0E"/>
</linearGradient>
<clipPath id="clip0_925_249">
<rect width="127" height="109" fill="white" transform="translate(1.5 10.5)"/>
</clipPath>
</defs>
</svg>
